<?xml version="1.0" ?>
<svg xmlns="http://www.w3.org/2000/svg" viewBox="0 0 3000 3000" width="7.5in" height="7.5in">
	<defs>
		<pattern id="hatch00" viewBox="0 0 25.0 25.0" patternUnits="userSpaceOnUse" x="0" y="0" width="25.0" height="25.0">
			<g>
				<line stroke="#1EAED0" stroke-width="2.5" x1="0" y1="0" x2="25.0" y2="25.0"/>
			</g>
		</pattern>
		<pattern id="wave00" viewBox="0 0 25.0 25.0" patternUnits="userSpaceOnUse" x="0" y="0" width="25.0" height="25.0">
			<g>
				<path stroke="#1EAED0" stroke-width="2.5" d="M 0.0 -12.5 A 20.0 10.0 75 0 0 0.0 -12.5 A 20.0 10.0 75 0 0 0.0 -12.5 A 20.0 10.0 75 0 0 0.0 -12.5 M 12.5 0.0 A 20.0 10.0 75 0 0 37.5 0.0 A 20.0 10.0 75 0 0 37.5 0.0 A 20.0 10.0 75 0 0 37.5 0.0 M 0.0 12.5 A 20.0 10.0 75 0 0 50.0 12.5 A 20.0 10.0 75 0 0 50.0 12.5 A 20.0 10.0 75 0 0 50.0 12.5" fill="none"/>
			</g>
		</pattern>
	</defs>
	<desc># Map grid</desc>
	<path stroke="#1EAED0" stroke-width="0.8" d="M 0 0 L 3000 0 M 0 100 L 3000 100 M 0 200 L 3000 200 M 0 300 L 3000 300 M 0 400 L 3000 400 M 0 500 L 3000 500 M 0 600 L 3000 600 M 0 700 L 3000 700 M 0 800 L 3000 800 M 0 900 L 3000 900 M 0 1000 L 3000 1000 M 0 1100 L 3000 1100 M 0 1200 L 3000 1200 M 0 1300 L 3000 1300 M 0 1400 L 3000 1400 M 0 1500 L 3000 1500 M 0 1600 L 3000 1600 M 0 1700 L 3000 1700 M 0 1800 L 3000 1800 M 0 1900 L 3000 1900 M 0 2000 L 3000 2000 M 0 2100 L 3000 2100 M 0 2200 L 3000 2200 M 0 2300 L 3000 2300 M 0 2400 L 3000 2400 M 0 2500 L 3000 2500 M 0 2600 L 3000 2600 M 0 2700 L 3000 2700 M 0 2800 L 3000 2800 M 0 2900 L 3000 2900 M 0 3000 L 3000 3000 M 0 0 L 0 3000 M 100 0 L 100 3000 M 200 0 L 200 3000 M 300 0 L 300 3000 M 400 0 L 400 3000 M 500 0 L 500 3000 M 600 0 L 600 3000 M 700 0 L 700 3000 M 800 0 L 800 3000 M 900 0 L 900 3000 M 1000 0 L 1000 3000 M 1100 0 L 1100 3000 M 1200 0 L 1200 3000 M 1300 0 L 1300 3000 M 1400 0 L 1400 3000 M 1500 0 L 1500 3000 M 1600 0 L 1600 3000 M 1700 0 L 1700 3000 M 1800 0 L 1800 3000 M 1900 0 L 1900 3000 M 2000 0 L 2000 3000 M 2100 0 L 2100 3000 M 2200 0 L 2200 3000 M 2300 0 L 2300 3000 M 2400 0 L 2400 3000 M 2500 0 L 2500 3000 M 2600 0 L 2600 3000 M 2700 0 L 2700 3000 M 2800 0 L 2800 3000 M 2900 0 L 2900 3000 M 3000 0 L 3000 3000"/>
	<desc># Map Edge</desc>
	<desc>line,0.0,0.0,0.0,30.0,thick</desc>
	<path stroke="#1EAED0" stroke-width="15.0" d="M 0.0 0.0 L 0.0 3000.0"/>
	<desc>line,0.0,30.0,30.0,30.0,thick</desc>
	<path stroke="#1EAED0" stroke-width="15.0" d="M 0.0 3000.0 L 3000.0 3000.0"/>
	<desc>line,30.0,30.0,30.0,0.0,thick</desc>
	<path stroke="#1EAED0" stroke-width="15.0" d="M 3000.0 3000.0 L 3000.0 0.0"/>
	<desc>line,30.0,0.0,0.0,0.0,thick</desc>
	<path stroke="#1EAED0" stroke-width="15.0" d="M 3000.0 0.0 L 0.0 0.0"/>
	<desc># Crunk-L</desc>
	<desc>line,1.0,1.0,4.0,1.0,crinkled</desc>
	<path stroke="#1EAED0" stroke-width="5.0" d="M 100.0 100.0 L 132.17 92.08 L 151.77 116.86 L 171.86 104.56 L 222.54 93.55 L 262.64 80.78 L 284.89 126.65 L 284.11 93.14 L 326.52 104.31 L 377.39 108.55 L 400.0 100.0" fill="none"/>
	<desc>line,4.0,1.0,4.0,4.0,crinkled</desc>
	<path stroke="#1EAED0" stroke-width="5.0" d="M 400.0 100.0 L 371.32 123.98 L 419.56 151.19 L 399.93 188.98 L 391.90 212.41 L 412.57 252.23 L 410.53 255.41 L 389.64 320.58 L 384.51 316.90 L 417.34 392.47 L 400.0 400.0" fill="none"/>
	<desc>line,4.0,4.0,1.0,4.0,crinkled</desc>
	<path stroke="#1EAED0" stroke-width="5.0" d="M 400.0 400.0 L 368.32 415.99 L 318.70 408.63 L 308.18 402.71 L 272.09 395.55 L 242.77 388.95 L 234.32 393.31 L 189.05 399.98 L 149.80 373.85 L 156.47 410.46 L 100.0 400.0" fill="none"/>
	<desc>line,1.0,4.0,1.0,1.0,crinkled</desc>
	<path stroke="#1EAED0" stroke-width="5.0" d="M 100.0 400.0 L 99.95 369.93 L 105.34 362.22 L 100.13 309.20 L 103.82 267.18 L 122.47 261.86 L 82.59 207.89 L 111.56 165.03 L 102.35 160.27 L 105.85 135.56 L 100.0 100.0" fill="none"/>
	<desc># Crunk-Q</desc>
	<desc>line,5.0,1.0,8.0,1.0,crinkled:20:0.75:quadratic</desc>
	<path stroke="#1EAED0" stroke-width="5.0" d="M 500.0 100.0 Q 503.10 100.16 508.40 103.55 Q 523.19 109.75 522.13 103.50 Q 534.00 86.36 542.21 97.80 Q 557.38 98.93 563.07 106.05 Q 575.72 95.62 581.37 101.62 Q 593.36 99.65 591.33 96.34 Q 590.75 102.74 605.77 105.37 Q 613.19 96.92 619.45 98.85 Q 630.33 107.84 638.04 90.64 Q 639.10 93.12 641.40 94.80 Q 661.84 97.25 668.54 100.20 Q 679.87 99.49 681.86 100.26 Q 690.02 100.01 696.41 101.34 Q 705.23 99.75 714.39 96.90 Q 728.97 97.17 727.54 103.08 Q 733.58 110.93 745.58 106.78 Q 748.08 106.43 751.87 99.96 Q 758.00 100.42 766.84 91.67 Q 773.19 99.66 785.07 107.14 Q 796.65 100.65 800.0 100.0" fill="none"/>
	<desc>line,8.0,1.0,8.0,4.0,crinkled</desc>
	<path stroke="#1EAED0" stroke-width="5.0" d="M 800.0 100.0 Q 803.53 116.26 795.54 114.54 Q 798.92 131.84 800.73 130.19 Q 797.62 142.71 792.73 152.99 Q 802.31 158.18 808.32 165.40 Q 807.97 162.30 804.05 164.51 Q 809.30 180.48 805.09 184.78 Q 800.55 195.74 800.92 206.68 Q 793.09 207.15 803.15 222.61 Q 802.23 221.10 807.01 235.64 Q 807.28 232.57 805.93 251.83 Q 809.59 251.82 793.48 268.98 Q 783.90 274.26 798.96 284.93 Q 798.60 302.28 799.37 299.23 Q 798.12 304.58 796.51 309.15 Q 802.28 317.97 809.62 329.42 Q 796.27 346.92 794.23 340.15 Q 789.77 346.42 791.41 350.07 Q 801.89 369.86 797.93 378.57 Q 797.50 381.51 798.27 382.20 Q 796.13 389.51 800.0 400.0" fill="none"/>
	<desc>line,8.0,4.0,5.0,4.0,crinkled</desc>
	<path stroke="#1EAED0" stroke-width="5.0" d="M 800.0 400.0 Q 783.44 401.70 786.36 401.55 Q 773.71 396.71 766.18 394.19 Q 754.07 392.53 753.89 400.39 Q 752.76 399.91 734.81 398.01 Q 729.50 403.53 725.45 399.35 Q 727.83 395.27 710.03 403.84 Q 707.66 409.97 690.17 399.54 Q 690.82 395.84 686.89 393.13 Q 683.57 407.50 663.00 400.29 Q 647.67 392.02 645.77 395.99 Q 644.81 414.81 632.44 409.15 Q 625.96 393.27 621.88 395.69 Q 612.69 406.81 604.53 402.22 Q 601.57 390.48 588.52 400.40 Q 584.06 404.83 576.59 404.33 Q 570.41 408.15 557.15 390.37 Q 550.85 395.54 544.94 400.07 Q 538.33 398.56 535.86 400.78 Q 525.13 398.90 515.82 400.53 Q 504.14 397.43 500.0 400.0" fill="none"/>
	<desc>line,5.0,4.0,5.0,1.0,crinkled</desc>
	<path stroke="#1EAED0" stroke-width="5.0" d="M 500.0 400.0 Q 501.53 394.01 502.61 388.64 Q 509.25 377.16 497.16 373.09 Q 504.33 364.56 493.05 359.90 Q 487.42 342.07 494.12 337.78 Q 498.42 335.15 500.86 325.24 Q 497.46 319.28 494.64 311.49 Q 497.03 304.46 499.99 290.82 Q 500.26 284.62 500.96 278.43 Q 508.44 273.49 504.95 268.88 Q 502.07 259.60 499.32 250.22 Q 501.87 243.32 497.04 231.58 Q 501.23 234.43 502.40 221.16 Q 504.62 208.79 501.42 198.72 Q 500.28 193.90 502.17 192.82 Q 499.72 172.19 501.68 172.84 Q 500.54 172.01 495.49 161.38 Q 496.14 159.27 489.83 147.28 Q 507.65 135.28 503.39 127.39 Q 493.60 124.89 502.92 108.56 Q 503.35 108.11 500.0 100.0" fill="none"/>
	<desc># Crunk-C</desc>
	<desc>line,9.0,1.0,12.0,1.0,crinkled:15:1.2:cubic</desc>
	<path stroke="#1EAED0" stroke-width="5.0" d="M 900.0 100.0 C 903.83 100.31 916.30 102.24 919.64 101.66 C 923.21 101.71 931.99 98.54 940.23 99.90 C 943.07 101.40 949.21 101.80 955.85 103.51 C 970.13 104.23 989.28 107.52 998.57 109.04 C 995.26 100.93 994.05 94.36 989.93 87.50 C 999.10 92.10 1004.48 96.85 1014.50 99.47 C 1019.91 93.83 1026.25 87.92 1031.82 82.98 C 1040.96 83.11 1047.52 79.94 1056.95 83.61 C 1063.22 87.75 1066.35 98.97 1070.73 107.07 C 1079.34 92.81 1095.70 94.77 1105.50 80.10 C 1109.41 89.48 1123.59 93.65 1128.11 96.70 C 1130.04 99.57 1129.91 100.34 1130.01 104.27 C 1147.24 109.67 1156.53 106.62 1169.22 109.18 C 1174.01 100.60 1172.41 95.31 1175.95 90.40 C 1187.54 89.86 1191.72 92.14 1200.0 100.0" fill="none"/>
	<desc>line,12.0,1.0,12.0,4.0,crinkled</desc>
	<path stroke="#1EAED0" stroke-width="5.0" d="M 1200.0 100.0 C 1200.14 108.13 1190.95 116.72 1186.53 126.10 C 1192.71 129.53 1197.60 135.84 1203.45 138.13 C 1196.33 142.86 1183.47 144.06 1180.23 150.69 C 1190.01 155.14 1203.23 160.88 1216.32 169.49 C 1205.60 172.49 1201.43 183.70 1185.89 188.73 C 1193.84 194.66 1200.21 201.86 1213.98 210.51 C 1212.38 224.22 1206.12 227.32 1199.92 239.17 C 1205.80 249.70 1209.41 249.08 1216.82 257.37 C 1213.24 262.67 1207.51 271.26 1202.13 278.38 C 1212.20 291.89 1204.06 304.05 1207.23 322.30 C 1203.38 325.76 1202.68 330.50 1199.54 334.74 C 1202.56 342.78 1203.52 344.18 1205.82 350.98 C 1209.82 353.85 1216.02 355.14 1218.64 357.65 C 1214.77 362.95 1212.29 370.86 1207.68 375.62 C 1206.75 382.09 1202.83 392.10 1200.0 400.0" fill="none"/>
	<desc>line,12.0,4.0,9.0,4.0,crinkled</desc>
	<path stroke="#1EAED0" stroke-width="5.0" d="M 1200.0 400.0 C 1196.78 401.22 1191.60 403.63 1187.74 406.16 C 1179.49 406.48 1167.45 406.57 1163.08 406.78 C 1146.75 403.84 1131.87 395.17 1118.62 395.86 C 1120.71 389.49 1119.21 384.46 1117.92 380.18 C 1111.55 392.47 1102.72 395.31 1101.17 401.34 C 1090.86 392.59 1076.29 398.35 1064.56 392.59 C 1063.07 392.42 1060.55 393.60 1059.18 393.21 C 1058.37 400.32 1061.16 410.17 1058.14 414.11 C 1045.08 412.94 1029.23 417.75 1019.48 409.16 C 1012.23 407.46 1003.06 404.58 997.44 404.46 C 998.91 399.66 998.23 396.65 999.07 393.36 C 986.68 394.46 967.90 400.86 955.65 399.86 C 952.04 401.54 945.92 400.45 939.85 400.27 C 933.54 399.55 925.59 400.74 918.05 397.86 C 912.06 398.40 908.36 398.89 900.0 400.0" fill="none"/>
	<desc>line,9.0,4.0,9.0,1.0,crinkled</desc>
	<path stroke="#1EAED0" stroke-width="5.0" d="M 900.0 400.0 C 901.09 386.14 911.84 379.18 912.74 372.39 C 909.24 366.98 903.48 360.34 899.93 357.53 C 902.02 354.46 902.41 349.41 901.10 344.99 C 899.86 335.89 903.21 324.61 900.68 316.39 C 905.73 300.63 903.02 290.39 912.18 283.88 C 913.27 283.63 915.83 285.52 918.11 285.05 C 913.12 281.64 906.79 281.42 901.86 280.40 C 900.48 272.21 904.29 254.13 908.15 239.60 C 904.78 234.57 904.02 225.17 903.00 220.36 C 896.18 219.03 891.59 212.13 880.82 212.52 C 889.95 203.73 889.83 199.59 899.81 193.59 C 908.65 181.88 915.57 168.94 914.12 158.68 C 915.74 154.54 917.37 148.19 920.82 142.48 C 911.63 138.65 903.14 139.55 895.75 139.90 C 896.27 119.96 896.49 106.95 900.0 100.0" fill="none"/>
	<desc># filled cave</desc>
	<desc>cave,12.0,12.0,15.0,12.0,solid:12:1.8</desc>
	<desc>continuation,15.0,12.0,15.0,15.0,solid</desc>
	<desc>continuation,15.0,15.0,12.0,15.0,solid</desc>
	<desc>continuation,12.0,15.0,12.0,12.0,solid</desc>
	<desc>continuation,12.0,12.0,12.0,12.0,cave_end</desc>
	<polygon stroke="#1EAED0" stroke-width="5.0" points="1200.0,1200.0 1260.85,1197.65 1245.85,1201.68 1276.39,1195.67 1301.59,1194.87 1328.14,1199.08 1328.26,1206.66 1378.96,1198.85 1416.90,1189.39 1446.62,1191.62 1457.03,1185.19 1465.45,1217.37 1500.0,1200.0 1500.0,1200.0 1503.03,1226.33 1474.32,1269.08 1467.80,1269.04 1512.69,1322.91 1508.54,1337.84 1470.18,1328.76 1498.25,1362.40 1496.00,1374.99 1524.44,1450.27 1518.84,1446.37 1524.85,1482.82 1500.0,1500.0 1500.0,1500.0 1458.12,1512.17 1442.96,1493.23 1425.01,1500.29 1392.33,1481.41 1354.46,1483.51 1350.62,1500.43 1357.14,1474.21 1316.54,1537.49 1237.50,1502.72 1233.31,1499.31 1220.25,1509.34 1200.0,1500.0 1200.0,1500.0 1215.31,1462.31 1185.05,1440.14 1194.85,1413.98 1208.81,1364.90 1199.89,1373.69 1198.00,1314.92 1222.36,1319.12 1192.25,1281.75 1167.08,1285.65 1210.61,1249.31 1231.81,1224.65 1200.0,1200.0 1200.0,1200.0" fill="#1EAED0"/>
</svg>
