<?xml version="1.0" ?>
<svg xmlns="http://www.w3.org/2000/svg" viewBox="0 0 3000 3000" width="7.5in" height="7.5in">
	<defs>
		<pattern id="hatch00" viewBox="0 0 25.0 25.0" patternUnits="userSpaceOnUse" x="0" y="0" width="25.0" height="25.0">
			<g>
				<line stroke="#1EAED0" stroke-width="2.5" x1="0" y1="0" x2="25.0" y2="25.0"/>
			</g>
		</pattern>
		<pattern id="wave00" viewBox="0 0 25.0 25.0" patternUnits="userSpaceOnUse" x="0" y="0" width="25.0" height="25.0">
			<g>
				<path stroke="#1EAED0" stroke-width="2.5" d="M 12.5 0.0 A 20.0 10.0 75 0 0 37.5 0.0 A 20.0 10.0 75 0 0 62.5 0.0 A 20.0 10.0 75 0 0 87.5 0.0 M 0.0 12.5 A 20.0 10.0 75 0 0 25.0 12.5 A 20.0 10.0 75 0 0 50.0 12.5 A 20.0 10.0 75 0 0 75.0 12.5" fill="none"/>
			</g>
		</pattern>
	</defs>
	<desc># Map grid (0,0) - (30,30)</desc>
	<path stroke="#1EAED0" stroke-width="0.8" d="M 0 0 L 3000 0 M 0 100 L 3000 100 M 0 200 L 3000 200 M 0 300 L 3000 300 M 0 400 L 3000 400 M 0 500 L 3000 500 M 0 600 L 3000 600 M 0 700 L 3000 700 M 0 800 L 3000 800 M 0 900 L 3000 900 M 0 1000 L 3000 1000 M 0 1100 L 3000 1100 M 0 1200 L 3000 1200 M 0 1300 L 3000 1300 M 0 1400 L 3000 1400 M 0 1500 L 3000 1500 M 0 1600 L 3000 1600 M 0 1700 L 3000 1700 M 0 1800 L 3000 1800 M 0 1900 L 3000 1900 M 0 2000 L 3000 2000 M 0 2100 L 3000 2100 M 0 2200 L 3000 2200 M 0 2300 L 3000 2300 M 0 2400 L 3000 2400 M 0 2500 L 3000 2500 M 0 2600 L 3000 2600 M 0 2700 L 3000 2700 M 0 2800 L 3000 2800 M 0 2900 L 3000 2900 M 0 3000 L 3000 3000 M 0 0 L 0 3000 M 100 0 L 100 3000 M 200 0 L 200 3000 M 300 0 L 300 3000 M 400 0 L 400 3000 M 500 0 L 500 3000 M 600 0 L 600 3000 M 700 0 L 700 3000 M 800 0 L 800 3000 M 900 0 L 900 3000 M 1000 0 L 1000 3000 M 1100 0 L 1100 3000 M 1200 0 L 1200 3000 M 1300 0 L 1300 3000 M 1400 0 L 1400 3000 M 1500 0 L 1500 3000 M 1600 0 L 1600 3000 M 1700 0 L 1700 3000 M 1800 0 L 1800 3000 M 1900 0 L 1900 3000 M 2000 0 L 2000 3000 M 2100 0 L 2100 3000 M 2200 0 L 2200 3000 M 2300 0 L 2300 3000 M 2400 0 L 2400 3000 M 2500 0 L 2500 3000 M 2600 0 L 2600 3000 M 2700 0 L 2700 3000 M 2800 0 L 2800 3000 M 2900 0 L 2900 3000 M 3000 0 L 3000 3000"/>
	<desc># Put your map here.</desc>
</svg>
